<svg xmlns="http://www.w3.org/2000/svg" viewBox="0 0 1033 942.1"><defs><style>.a{fill:none;}</style></defs><title>Rabbit</title><path class="a" d="M1018,731.53c-10.49,20.23-27.54,45.16-42.42,48.21s-106.62,5.19-120.5-2.9-36-19.28-36-19.28H806S790.89,827,791.32,844.38s-6.36,54.17-30.68,74.18c-42.22,34.74-148.1,8.27-180.28-19.28-6.1-5.23-7.71-27-7.71-27-44.19,19.4-86.49,33.42-125.33,37.59,0,0-31.36,47.76-120.51,27S142.68,808.66,142.68,808.66s-43.94,33.12-81,14.46C20,802.1,0,707.69,0,696.83s14.56-15.61,21.21-11.57,25.06,25.06,25.06,25.06c15.19-17.91,31.67-23,48.5-24.52A167.51,167.51,0,0,1,83.2,654.46c-27.75-105.57,34.47-248.68,89.59-304.32,7.35-25.13-8.11-41.7-10.83-58.22s1.92-134,1.92-134C129.83-36.13,306.17-8.76,337.32,21S375,110.68,375,110.68,395.78,63.87,427.08,49c38.35-18.25,113.42-1.32,131.11,11.57s25.06,49.17,25.06,49.17S628.16,98,698,102s161,69.41,161,69.41c28.25.78,83.37,45,80,94.47,10.54,11.69,80.15,164.94,85.8,205.35S1043,683.39,1018,731.53Z"/></svg>