<svg xmlns="http://www.w3.org/2000/svg" viewBox="0 0 753.69 545.61"><defs><style>.a{fill:none;}</style></defs><title>Shot Glasses</title><path class="a" d="M382.79,36.64C417.3-.23,461.93-5.75,511.71,4.66l4,59,44,26-6,69h92l5.82,157.71,89,50.4,13.24,61.52-51.48,95.6-76.73,21.82L259,327.94,18.55,346,0,210.22c35.66-6.11,63.55-3.62,82,9.3l-1.66,17.27c42.78-6.56,81.35-8.46,110.57,0l6.65,11.83L194.25,286l12.47-2.5-2.49-12.47,56.53-25.77-5.6-48.22c47.67-34.52,98-38.1,150.26-18.29l12.11-10-16.27-63.18,7.48-13.31Z"/></svg>